<?xml version="1.0" standalone="no"?>
<svg xmlns="http://www.w3.org/2000/svg" xmlns:xlink="http://www.w3.org/1999/xlink" width="1074pt" height="974pt" viewBox="0.00 0.00 1074.02 973.69">
<g id="graph0" class="graph" transform="translate(239.73322639467602,719.9052111963728) scale(0.4364837955668823)" data-name="AFA">

<polygon fill="white" stroke="none" points="-4,4 -4,-969.69 1070.02,-969.69 1070.02,4 -4,4"/>
<!-- start -->
<g id="node6" class="node" pointer-events="visible" data-name="start">

<ellipse fill="black" stroke="black" cx="1.8" cy="-581" rx="1.8" ry="1.8"/>
</g><g id="node1" class="node" pointer-events="visible" data-name="q7" data-comment="start">

<ellipse fill="none" stroke="black" cx="357.31" cy="-767" rx="20.86" ry="20.86"/>
<ellipse fill="none" stroke="black" cx="357.31" cy="-767" rx="24.89" ry="24.89"/>
<text text-anchor="middle" x="357.31" y="-762.8" font-family="Times,serif" font-size="14.00">q7</text>
</g>
<!-- p0 -->

<!-- start&#45;&gt;p0 -->

<!-- p1 -->

<!-- p0&#45;&gt;p1 -->

<!-- p3 -->

<!-- p0&#45;&gt;p3 -->

<!-- U -->

<!-- p0&#45;&gt;U -->

<!-- p1&#45;&gt;p0 -->

<!-- p2 -->

<!-- p1&#45;&gt;p2 -->
<g id="edge3" class="edge" data-name="u-&gt;0" data-comment="p1-&gt;p2">

<path fill="none" stroke="black" d="M69.45,-564.83C86.75,-525.74 130.98,-425.85 152.28,-377.71"/>
<polygon fill="black" stroke="black" points="155.36,-379.41 156.21,-368.85 148.96,-376.57 155.36,-379.41"/>
<text text-anchor="middle" x="113.2" y="-498.2" font-family="Times,serif" font-size="14.00">ε</text>
</g>
<!-- p2&#45;&gt;p0 -->

<!-- p3&#45;&gt;p0 -->

<!-- p4 -->

<!-- p3&#45;&gt;p4 -->

<!-- p4&#45;&gt;p0 -->

<!-- t1 -->

<!-- t2 -->

<!-- t1&#45;&gt;t2 -->

<!-- t3 -->

<!-- t2&#45;&gt;t3 -->

<!-- t4 -->
<g id="node7" class="node" pointer-events="visible" data-name="u" data-comment="t4">

<ellipse fill="none" stroke="black" cx="61.29" cy="-581" rx="18" ry="18"/>
<text text-anchor="middle" x="61.29" y="-576.8" font-family="Times,serif" font-size="14.00">u</text>
</g>
<!-- t3&#45;&gt;t4 -->
<g id="edge1" class="edge" data-name="start-&gt;u" data-comment="t3-&gt;t4">

<path fill="none" stroke="black" d="M3.8,-581C7.3,-581 19.48,-581 31.64,-581"/>
<polygon fill="black" stroke="black" points="31.5,-584.5 41.5,-581 31.5,-577.5 31.5,-584.5"/>
</g>
<!-- t5 -->
<g id="node8" class="node" pointer-events="visible" data-name="q0" data-comment="t5">

<ellipse fill="none" stroke="black" cx="165.11" cy="-870" rx="20.89" ry="20.89"/>
<text text-anchor="middle" x="165.11" y="-865.8" font-family="Times,serif" font-size="14.00">q0</text>
</g>
<!-- t4&#45;&gt;t5 -->
<g id="edge2" class="edge" data-name="u-&gt;q0" data-comment="t4-&gt;t5">

<path fill="none" stroke="black" d="M62.1,-599.26C62.38,-638.07 66.8,-730.79 99.99,-799 109.5,-818.54 126.04,-836.65 139.93,-849.69"/>
<polygon fill="black" stroke="black" points="137.27,-852.01 147.04,-856.11 141.96,-846.81 137.27,-852.01"/>
<text text-anchor="middle" x="113.2" y="-839.2" font-family="Times,serif" font-size="14.00">ε</text>
</g>
<!-- U&#45;&gt;t1 -->

<!-- P_ok -->

<!-- U&#45;&gt;P_ok -->
<g id="node10" class="node" pointer-events="visible" data-name="q1" data-comment="U-&gt;P_ok">

<ellipse fill="none" stroke="black" cx="259.21" cy="-815" rx="20.89" ry="20.89"/>
<text text-anchor="middle" x="259.21" y="-810.8" font-family="Times,serif" font-size="14.00">q1</text>
</g>
<!-- P_ok&#45;&gt;P_ok -->
<g id="edge4" class="edge" data-name="q0-&gt;q1" data-comment="P_ok-&gt;P_ok">

<path fill="none" stroke="black" d="M181.74,-856.92C188.33,-851.71 196.22,-845.85 203.8,-841.2 211.84,-836.26 220.95,-831.56 229.39,-827.53"/>
<polygon fill="black" stroke="black" points="230.59,-830.83 238.21,-823.47 227.66,-824.48 230.59,-830.83"/>
<text text-anchor="middle" x="212.16" y="-845.2" font-family="Times,serif" font-size="14.00">a</text>
</g>
<!-- q3 -->
<g id="node11" class="node" pointer-events="visible" data-name="q3">

<ellipse fill="none" stroke="black" cx="259.21" cy="-945" rx="20.89" ry="20.89"/>
<text text-anchor="middle" x="259.21" y="-940.8" font-family="Times,serif" font-size="14.00">q3</text>
</g>
<!-- q0&#45;&gt;q3 -->
<g id="edge5" class="edge" data-name="q0-&gt;q3">

<path fill="none" stroke="black" d="M175.69,-888.5C182.3,-899.75 192.02,-913.69 203.8,-923 210.86,-928.58 219.53,-932.92 227.85,-936.23"/>
<polygon fill="black" stroke="black" points="226.4,-939.43 237,-939.47 228.74,-932.83 226.4,-939.43"/>
<text text-anchor="middle" x="212.16" y="-936.2" font-family="Times,serif" font-size="14.00">b</text>
</g>
<!-- pa -->

<!-- p0&#45;&gt;pa -->

<!-- pb -->

<!-- p0&#45;&gt;pb -->

<!-- pc -->

<!-- p0&#45;&gt;pc -->

<!-- q1&#45;&gt;q0 -->
<g id="edge7" class="edge" data-name="q1-&gt;q0">

<path fill="none" stroke="black" d="M238.98,-808.74C228.04,-806.34 214.44,-805.39 203.8,-811.2 192.35,-817.46 183.87,-828.85 177.88,-839.94"/>
<polygon fill="black" stroke="black" points="174.73,-838.43 173.54,-848.95 181.03,-841.46 174.73,-838.43"/>
<text text-anchor="middle" x="212.16" y="-815.2" font-family="Times,serif" font-size="14.00">c</text>
</g>
<!-- q2 -->
<g id="node12" class="node" pointer-events="visible" data-name="q2">

<ellipse fill="none" stroke="black" cx="357.31" cy="-851" rx="20.89" ry="20.89"/>
<text text-anchor="middle" x="357.31" y="-846.8" font-family="Times,serif" font-size="14.00">q2</text>
</g>
<!-- q1&#45;&gt;q2 -->
<g id="edge6" class="edge" data-name="q1-&gt;q2">

<path fill="none" stroke="black" d="M279.2,-822.11C292.75,-827.19 311.25,-834.12 326.74,-839.92"/>
<polygon fill="black" stroke="black" points="325.35,-843.14 335.95,-843.37 327.81,-836.59 325.35,-843.14"/>
<text text-anchor="middle" x="306.26" y="-839.2" font-family="Times,serif" font-size="14.00">b</text>
</g>
<!-- q3&#45;&gt;q0 -->
<g id="edge10" class="edge" data-name="q3-&gt;q0">

<path fill="none" stroke="black" d="M245.69,-928.43C238.82,-919.99 229.82,-909.9 220.52,-902.2 212.56,-895.61 203.09,-889.51 194.3,-884.43"/>
<polygon fill="black" stroke="black" points="196.2,-881.48 185.76,-879.71 192.82,-887.61 196.2,-881.48"/>
<text text-anchor="middle" x="212.16" y="-906.2" font-family="Times,serif" font-size="14.00">c</text>
</g>
<!-- q4 -->
<g id="node13" class="node" pointer-events="visible" data-name="q4">

<ellipse fill="none" stroke="black" cx="61.29" cy="-870" rx="20.89" ry="20.89"/>
<text text-anchor="middle" x="61.29" y="-865.8" font-family="Times,serif" font-size="14.00">q4</text>
</g>
<!-- q3&#45;&gt;q4 -->
<g id="edge9" class="edge" data-name="q3-&gt;q4">

<path fill="none" stroke="black" d="M239.1,-951.6C228.56,-954.29 215.32,-956.13 203.8,-953 159,-940.83 113.89,-910.51 87.02,-890.09"/>
<polygon fill="black" stroke="black" points="89.22,-887.37 79.18,-883.99 84.92,-892.89 89.22,-887.37"/>
<text text-anchor="middle" x="165.11" y="-950.2" font-family="Times,serif" font-size="14.00">a</text>
</g>
<!-- q2&#45;&gt;q0 -->
<g id="edge8" class="edge" data-name="q2-&gt;q0">

<path fill="none" stroke="black" d="M336.39,-853.49C329.5,-854.33 321.72,-855.24 314.62,-856 274.33,-860.31 227.82,-864.58 197.74,-867.25"/>
<polygon fill="black" stroke="black" points="197.46,-863.76 187.81,-868.13 198.08,-870.74 197.46,-863.76"/>
<text text-anchor="middle" x="259.21" y="-867.2" font-family="Times,serif" font-size="14.00">c</text>
</g>
<!-- q4&#45;&gt;q0 -->
<g id="edge11" class="edge" data-name="q4-&gt;q0">

<path fill="none" stroke="black" d="M82.41,-870C96.77,-870 116.37,-870 132.78,-870"/>
<polygon fill="black" stroke="black" points="132.52,-873.5 142.52,-870 132.52,-866.5 132.52,-873.5"/>
<text text-anchor="middle" x="113.2" y="-874.2" font-family="Times,serif" font-size="14.00">c</text>
</g>
<!-- q5 -->
<g id="node14" class="node" pointer-events="visible" data-name="q5">

<ellipse fill="none" stroke="black" cx="165.11" cy="-760" rx="20.89" ry="20.89"/>
<text text-anchor="middle" x="165.11" y="-755.8" font-family="Times,serif" font-size="14.00">q5</text>
</g><g id="node16" class="node" pointer-events="visible" data-name="a" data-comment="q5">

<ellipse fill="none" stroke="black" cx="259.21" cy="-481" rx="18" ry="18"/>
<text text-anchor="middle" x="259.21" y="-476.8" font-family="Times,serif" font-size="14.00">a</text>
</g>
<!-- q4&#45;&gt;q5 -->
<g id="edge12" class="edge" data-name="q4-&gt;q5">

<path fill="none" stroke="black" d="M66.11,-849.47C70.81,-829.68 80.68,-800.16 99.99,-782.2 109.04,-773.77 121.46,-768.53 132.95,-765.27"/>
<polygon fill="black" stroke="black" points="133.6,-768.71 142.51,-762.98 131.97,-761.9 133.6,-768.71"/>
<text text-anchor="middle" x="113.2" y="-786.2" font-family="Times,serif" font-size="14.00">a,b,c</text>
</g><g id="edge15" class="edge" data-name="0-&gt;a" data-comment="q4-&gt;q5">

<path fill="none" stroke="black" d="M176.32,-365.41C192.08,-387.66 222.52,-430.63 241.52,-457.45"/>
<polygon fill="black" stroke="black" points="238.44,-459.16 247.08,-465.29 244.15,-455.11 238.44,-459.16"/>
<text text-anchor="middle" x="212.16" y="-432.2" font-family="Times,serif" font-size="14.00">a</text>
</g>
<!-- q6 -->
<g id="node15" class="node" pointer-events="visible" data-name="q6">

<ellipse fill="none" stroke="black" cx="259.21" cy="-756" rx="20.89" ry="20.89"/>
<text text-anchor="middle" x="259.21" y="-751.8" font-family="Times,serif" font-size="14.00">q6</text>
</g><g id="node17" class="node" pointer-events="visible" data-name="b" data-comment="q6">

<ellipse fill="none" stroke="black" cx="357.31" cy="-237" rx="18" ry="18"/>
<text text-anchor="middle" x="357.31" y="-232.8" font-family="Times,serif" font-size="14.00">b</text>
</g>
<!-- q5&#45;&gt;q6 -->
<g id="edge13" class="edge" data-name="q5-&gt;q6">

<path fill="none" stroke="black" d="M186.09,-759.13C197.96,-758.62 213.27,-757.95 226.73,-757.37"/>
<polygon fill="black" stroke="black" points="226.59,-760.88 236.43,-756.95 226.29,-753.88 226.59,-760.88"/>
<text text-anchor="middle" x="212.16" y="-762.2" font-family="Times,serif" font-size="14.00">a,b</text>
</g><g id="node9" class="node" pointer-events="visible" data-name="0" data-comment="q5-&gt;q6">

<ellipse fill="none" stroke="black" cx="165.11" cy="-351" rx="18" ry="18"/>
<text text-anchor="middle" x="165.11" y="-346.8" font-family="Times,serif" font-size="14.00">0</text>
</g><g id="edge16" class="edge" data-name="0-&gt;b" data-comment="q5-&gt;q6">

<path fill="none" stroke="black" d="M171.92,-334.07C177.89,-318.81 188.48,-296.59 203.8,-282 237.81,-249.62 293.96,-240.4 327.81,-237.86"/>
<polygon fill="black" stroke="black" points="327.9,-241.36 337.68,-237.29 327.49,-234.38 327.9,-241.36"/>
<text text-anchor="middle" x="259.21" y="-263.2" font-family="Times,serif" font-size="14.00">b</text>
</g>
<!-- q6&#45;&gt;q7 -->
<g id="edge14" class="edge" data-name="q6-&gt;q7">

<path fill="none" stroke="black" d="M280.12,-758.28C291.98,-759.64 307.36,-761.4 321.19,-762.98"/>
<polygon fill="black" stroke="black" points="320.51,-766.42 330.84,-764.08 321.3,-759.47 320.51,-766.42"/>
<text text-anchor="middle" x="306.26" y="-766.2" font-family="Times,serif" font-size="14.00">b,c</text>
</g><g id="node18" class="node" pointer-events="visible" data-name="c" data-comment="q6-&gt;q7">

<ellipse fill="none" stroke="black" cx="541.54" cy="-179" rx="18" ry="18"/>
<text text-anchor="middle" x="541.54" y="-174.8" font-family="Times,serif" font-size="14.00">c</text>
</g>
<!-- pa&#45;&gt;pab -->
<g id="edge17" class="edge" data-name="0-&gt;c" data-comment="pa-&gt;pab">

<path fill="none" stroke="black" d="M178.15,-337.97C194.55,-321.7 225.62,-296 258.21,-296 258.21,-296 258.21,-296 450.7,-296 473.56,-296 508.23,-239.1 527.12,-204.66"/>
<polygon fill="black" stroke="black" points="530.06,-206.57 531.73,-196.11 523.9,-203.25 530.06,-206.57"/>
<text text-anchor="middle" x="357.31" y="-300.2" font-family="Times,serif" font-size="14.00">c</text>
</g>
<!-- pa&#45;&gt;pac -->

<!-- paa -->
<g id="edge19" class="edge" data-name="a-&gt;ab" data-comment="paa">

<path fill="none" stroke="black" d="M275.65,-488.39C288.79,-494.68 308.1,-503.92 324.53,-511.79"/>
<polygon fill="black" stroke="black" points="322.92,-514.9 333.45,-516.06 325.95,-508.59 322.92,-514.9"/>
<text text-anchor="middle" x="306.26" y="-511.2" font-family="Times,serif" font-size="14.00">b</text>
</g>
<!-- pa&#45;&gt;paa -->
<g id="node19" class="node" pointer-events="visible" data-name="aa" data-comment="pa-&gt;paa">

<ellipse fill="none" stroke="black" cx="708.95" cy="-510" rx="19.72" ry="19.72"/>
<text text-anchor="middle" x="708.95" y="-505.8" font-family="Times,serif" font-size="14.00">aa</text>
</g><g id="edge18" class="edge" data-name="a-&gt;aa" data-comment="pa-&gt;paa">

<path fill="none" stroke="black" d="M259.53,-499.28C258.52,-554.21 263.54,-714 356.31,-714 356.31,-714 356.31,-714 587.8,-714 667.04,-714 695.07,-598.31 704.08,-541.17"/>
<polygon fill="black" stroke="black" points="707.52,-541.83 705.51,-531.43 700.6,-540.82 707.52,-541.83"/>
<text text-anchor="middle" x="495.89" y="-718.2" font-family="Times,serif" font-size="14.00">a</text>
</g>
<!-- pb&#45;&gt;pbb -->

<!-- pb&#45;&gt;pbc -->
<g id="node2" class="node" pointer-events="visible" data-name="ab" data-comment="pb-&gt;pbc">

<ellipse fill="none" stroke="black" cx="357.31" cy="-527" rx="20.28" ry="20.28"/>
<text text-anchor="middle" x="357.31" y="-522.8" font-family="Times,serif" font-size="14.00">ab</text><ellipse fill="none" stroke="black" cx="357.31" cy="-527" rx="24.3" ry="24.3"/>

</g><g id="node3" class="node" pointer-events="visible" data-name="ac" data-comment="pb-&gt;pbc">

<ellipse fill="none" stroke="black" cx="795.16" cy="-417" rx="19.7" ry="19.7"/>
<text text-anchor="middle" x="795.16" y="-412.8" font-family="Times,serif" font-size="14.00">ac</text><ellipse fill="none" stroke="black" cx="795.16" cy="-417" rx="23.72" ry="23.72"/>

</g>
<!-- pb&#45;&gt;pba -->
<g id="edge20" class="edge" data-name="a-&gt;ac" data-comment="pb-&gt;pba">

<path fill="none" stroke="black" d="M276.95,-477.22C306.63,-470.65 370.45,-457.18 425,-450 559.15,-432.36 593.67,-437.51 728.56,-427 739.67,-426.13 742.51,-426.52 753.56,-425 755.74,-424.7 757.99,-424.35 760.26,-423.98"/>
<polygon fill="black" stroke="black" points="760.77,-427.44 769.99,-422.22 759.52,-420.56 760.77,-427.44"/>
<text text-anchor="middle" x="541.54" y="-444.2" font-family="Times,serif" font-size="14.00">c</text>
</g>
<!-- pc&#45;&gt;pca -->

<!-- pc&#45;&gt;pcb -->
<g id="edge23" class="edge" data-name="b-&gt;bc" data-comment="pc-&gt;pcb">

<path fill="none" stroke="black" d="M375.45,-240.39C405.37,-246.3 467.63,-258.6 506.56,-266.29"/>
<polygon fill="black" stroke="black" points="505.38,-269.62 515.87,-268.13 506.74,-262.75 505.38,-269.62"/>
<text text-anchor="middle" x="449.7" y="-264.2" font-family="Times,serif" font-size="14.00">c</text>
</g><g id="edge22" class="edge" data-name="b-&gt;bb" data-comment="pc-&gt;pcb">

<path fill="none" stroke="black" d="M369.39,-250.73C383.48,-268.19 408.14,-298.74 426.23,-321.16"/>
<polygon fill="black" stroke="black" points="423.33,-323.14 432.34,-328.73 428.78,-318.75 423.33,-323.14"/>
<text text-anchor="middle" x="403.5" y="-301.2" font-family="Times,serif" font-size="14.00">b</text>
</g><g id="edge21" class="edge" data-name="b-&gt;ba" data-comment="pc-&gt;pcb">

<path fill="none" stroke="black" d="M361.13,-219.19C370.37,-164.07 401.8,0 448.7,0 448.7,0 448.7,0 964.36,0 1014.7,0 1037.63,-380.66 1043.38,-494.94"/>
<polygon fill="black" stroke="black" points="1039.88,-495.01 1043.86,-504.83 1046.87,-494.67 1039.88,-495.01"/>
<text text-anchor="middle" x="708.95" y="-4.2" font-family="Times,serif" font-size="14.00">a</text>
</g>
<!-- pc&#45;&gt;pcc -->

<!-- paa&#45;&gt;pab -->
<g id="node20" class="node" pointer-events="visible" data-name="ba" data-comment="paa-&gt;pab">

<ellipse fill="none" stroke="black" cx="1045.87" cy="-527" rx="20.3" ry="20.3"/>
<text text-anchor="middle" x="1045.87" y="-522.8" font-family="Times,serif" font-size="14.00">ba</text>
</g>
<!-- paa&#45;&gt;pac -->
<g id="node4" class="node" pointer-events="visible" data-name="bb" data-comment="paa-&gt;pac">

<ellipse fill="none" stroke="black" cx="449.7" cy="-349" rx="20.86" ry="20.86"/>
<text text-anchor="middle" x="449.7" y="-344.8" font-family="Times,serif" font-size="14.00">bb</text><ellipse fill="none" stroke="black" cx="449.7" cy="-349" rx="24.89" ry="24.89"/>

</g>
<!-- paa&#45;&gt;paa -->
<g id="node5" class="node" pointer-events="visible" data-name="bc" data-comment="paa-&gt;paa">

<ellipse fill="none" stroke="black" cx="541.54" cy="-273" rx="20.28" ry="20.28"/>
<text text-anchor="middle" x="541.54" y="-268.8" font-family="Times,serif" font-size="14.00">bc</text><ellipse fill="none" stroke="black" cx="541.54" cy="-273" rx="24.3" ry="24.3"/>

</g>
<!-- pba&#45;&gt;pab -->
<g id="node21" class="node" pointer-events="visible" data-name="ca" data-comment="pba-&gt;pab">

<ellipse fill="none" stroke="black" cx="627.52" cy="-364" rx="19.72" ry="19.72"/>
<text text-anchor="middle" x="627.52" y="-359.8" font-family="Times,serif" font-size="14.00">ca</text>
</g>
<!-- pba&#45;&gt;pac -->
<g id="node22" class="node" pointer-events="visible" data-name="cb" data-comment="pba-&gt;pac">

<ellipse fill="none" stroke="black" cx="963.36" cy="-228" rx="20.3" ry="20.3"/>
<text text-anchor="middle" x="963.36" y="-223.8" font-family="Times,serif" font-size="14.00">cb</text>
</g><g id="edge24" class="edge" data-name="c-&gt;ca" data-comment="pba-&gt;pac">

<path fill="none" stroke="black" d="M549.99,-195.42C564.31,-226.95 595.81,-296.35 613.61,-335.56"/>
<polygon fill="black" stroke="black" points="610.4,-336.96 617.72,-344.62 616.77,-334.07 610.4,-336.96"/>
<text text-anchor="middle" x="586.8" y="-287.2" font-family="Times,serif" font-size="14.00">a</text>
</g>
<!-- pba&#45;&gt;paa -->
<g id="node23" class="node" pointer-events="visible" data-name="cc" data-comment="pba-&gt;paa">

<ellipse fill="none" stroke="black" cx="880.6" cy="-276" rx="19.72" ry="19.72"/>
<text text-anchor="middle" x="880.6" y="-271.8" font-family="Times,serif" font-size="14.00">cc</text>
</g><g id="edge25" class="edge" data-name="c-&gt;cb" data-comment="pba-&gt;paa">

<path fill="none" stroke="black" d="M550.09,-163C562.46,-139.39 589.45,-98 626.52,-98 626.52,-98 626.52,-98 881.6,-98 927.83,-98 948.52,-158.06 957.04,-196.53"/>
<polygon fill="black" stroke="black" points="953.58,-197.1 959,-206.2 960.44,-195.71 953.58,-197.1"/>
<text text-anchor="middle" x="750.06" y="-102.2" font-family="Times,serif" font-size="14.00">b</text>
</g>
<!-- pca&#45;&gt;pab -->
<g id="edge26" class="edge" data-name="c-&gt;cc" data-comment="pca-&gt;pab">

<path fill="none" stroke="black" d="M556.95,-168.88C573.1,-158.54 600.45,-144 626.52,-144 626.52,-144 626.52,-144 796.16,-144 843.81,-144 865.36,-206.2 874.19,-245.21"/>
<polygon fill="black" stroke="black" points="870.71,-245.68 876.18,-254.76 877.56,-244.25 870.71,-245.68"/>
<text text-anchor="middle" x="708.95" y="-148.2" font-family="Times,serif" font-size="14.00">c</text>
</g>
<!-- pca&#45;&gt;pac -->

<!-- pca&#45;&gt;paa -->

<!-- pcb&#45;&gt;pbb -->
<g id="edge28" class="edge" data-name="aa-&gt;ab" data-comment="pcb-&gt;pbb">

<path fill="none" stroke="black" d="M700.4,-528.01C688.83,-552.42 664.22,-593 628.52,-593 448.7,-593 448.7,-593 448.7,-593 421.31,-593 396.68,-573 380.08,-555.01"/>
<polygon fill="black" stroke="black" points="382.8,-552.81 373.59,-547.59 377.53,-557.42 382.8,-552.81"/>
<text text-anchor="middle" x="541.54" y="-597.2" font-family="Times,serif" font-size="14.00">b</text>
</g><g id="edge27" class="edge" data-name="aa-&gt;aa" data-comment="pcb-&gt;pbb">

<path fill="none" stroke="black" d="M701.63,-528.58C700.38,-538.54 702.82,-547.61 708.95,-547.61 712.58,-547.61 714.92,-544.41 715.96,-539.73"/>
<polygon fill="black" stroke="black" points="719.45,-540.18 716.22,-530.09 712.45,-539.99 719.45,-540.18"/>
<text text-anchor="middle" x="708.95" y="-551.81" font-family="Times,serif" font-size="14.00">a</text>
</g><g id="edge30" class="edge" data-name="ab-&gt;ba" data-comment="pcb-&gt;pbb">

<path fill="none" stroke="black" d="M365.55,-550.27C377.3,-582.82 403.84,-638 448.7,-638 448.7,-638 448.7,-638 964.36,-638 1004.18,-638 1026.34,-590.61 1036.91,-557.76"/>
<polygon fill="black" stroke="black" points="1040.23,-558.88 1039.75,-548.29 1033.52,-556.87 1040.23,-558.88"/>
<text text-anchor="middle" x="708.95" y="-642.2" font-family="Times,serif" font-size="14.00">a</text>
</g><g id="edge35" class="edge" data-name="ac-&gt;cc" data-comment="pcb-&gt;pbb">

<path fill="none" stroke="black" d="M808.12,-396.8C822.82,-371.95 847.82,-329.71 864.01,-302.34"/>
<polygon fill="black" stroke="black" points="866.9,-304.33 868.98,-293.94 860.87,-300.77 866.9,-304.33"/>
<text text-anchor="middle" x="839.88" y="-351.2" font-family="Times,serif" font-size="14.00">c</text>
</g><g id="edge34" class="edge" data-name="ac-&gt;cb" data-comment="pcb-&gt;pbb">

<path fill="none" stroke="black" d="M816.14,-405.56C838.67,-391.92 875.38,-367.37 900.21,-339 921.8,-314.32 939.26,-280.93 950.11,-257.23"/>
<polygon fill="black" stroke="black" points="953.28,-258.72 954.14,-248.16 946.88,-255.88 953.28,-258.72"/>
<text text-anchor="middle" x="880.6" y="-378.2" font-family="Times,serif" font-size="14.00">b</text>
</g><g id="edge33" class="edge" data-name="ac-&gt;ca" data-comment="pcb-&gt;pbb">

<path fill="none" stroke="black" d="M775.35,-403.15C762.74,-394.58 745.41,-384.12 728.56,-378.2 705.97,-370.27 679.04,-366.76 658.81,-365.21"/>
<polygon fill="black" stroke="black" points="659.18,-361.73 648.98,-364.59 658.74,-368.71 659.18,-361.73"/>
<text text-anchor="middle" x="708.95" y="-383.2" font-family="Times,serif" font-size="14.00">a</text>
</g><g id="edge42" class="edge" data-name="bc-&gt;ca" data-comment="pcb-&gt;pbb">

<path fill="none" stroke="black" d="M558.73,-290.55C572.16,-305.1 591.34,-325.89 605.88,-341.63"/>
<polygon fill="black" stroke="black" points="603.03,-343.71 612.38,-348.68 608.17,-338.96 603.03,-343.71"/>
<text text-anchor="middle" x="586.8" y="-328.2" font-family="Times,serif" font-size="14.00">a</text>
</g>
<!-- pcb&#45;&gt;pbc -->
<g id="edge29" class="edge" data-name="aa-&gt;ac" data-comment="pcb-&gt;pbc">

<path fill="none" stroke="black" d="M725.27,-498.49C734.02,-491.57 744.92,-482.32 753.56,-473 761.17,-464.78 768.62,-455.12 775.03,-446.16"/>
<polygon fill="black" stroke="black" points="777.83,-448.26 780.66,-438.05 772.08,-444.27 777.83,-448.26"/>
<text text-anchor="middle" x="750.06" y="-484.2" font-family="Times,serif" font-size="14.00">c</text>
</g><g id="edge31" class="edge" data-name="ab-&gt;bb" data-comment="pcb-&gt;pbc">

<path fill="none" stroke="black" d="M369.21,-505.53C384.94,-474.56 414.1,-417.12 432.4,-381.1"/>
<polygon fill="black" stroke="black" points="435.38,-382.96 436.79,-372.46 429.14,-379.79 435.38,-382.96"/>
<text text-anchor="middle" x="403.5" y="-448.2" font-family="Times,serif" font-size="14.00">b</text>
</g><g id="edge43" class="edge" data-name="bc-&gt;cb" data-comment="pcb-&gt;pbc">

<path fill="none" stroke="black" d="M558.53,-255.1C570.8,-242.5 588.83,-226.29 607.91,-217 664.41,-189.49 684.01,-195.41 746.56,-189.2 826.33,-181.28 847.57,-194.02 925.21,-214 927.85,-214.68 930.57,-215.49 933.28,-216.36"/>
<polygon fill="black" stroke="black" points="932.07,-219.65 942.67,-219.71 934.42,-213.06 932.07,-219.65"/>
<text text-anchor="middle" x="750.06" y="-194.2" font-family="Times,serif" font-size="14.00">b</text>
</g><g id="edge44" class="edge" data-name="bc-&gt;cc" data-comment="pcb-&gt;pbc">

<path fill="none" stroke="black" d="M566.07,-273C582.9,-273 606.1,-273 626.52,-273 626.52,-273 626.52,-273 796.16,-273 813.84,-273 833.6,-273.68 849.45,-274.39"/>
<polygon fill="black" stroke="black" points="849.05,-277.88 859.2,-274.86 849.38,-270.89 849.05,-277.88"/>
<text text-anchor="middle" x="708.95" y="-277.2" font-family="Times,serif" font-size="14.00">c</text>
</g>
<!-- pcb&#45;&gt;pba -->
<g id="edge32" class="edge" data-name="ab-&gt;bc" data-comment="pcb-&gt;pba">

<path fill="none" stroke="black" d="M377.32,-512.8C402.24,-493.4 446.1,-456.5 474.39,-417 499.14,-382.44 518.11,-337.13 529.27,-306.65"/>
<polygon fill="black" stroke="black" points="532.44,-308.16 532.51,-297.56 525.85,-305.8 532.44,-308.16"/>
<text text-anchor="middle" x="449.7" y="-476.2" font-family="Times,serif" font-size="14.00">c</text>
</g><g id="edge40" class="edge" data-name="bb-&gt;bb" data-comment="pcb-&gt;pba">

<path fill="none" stroke="black" d="M441.14,-372.71C440.44,-382.94 443.29,-391.69 449.7,-391.69 453.5,-391.69 456.05,-388.61 457.35,-383.96"/>
<polygon fill="black" stroke="black" points="460.82,-384.47 458.13,-374.22 453.84,-383.9 460.82,-384.47"/>
<text text-anchor="middle" x="449.7" y="-395.89" font-family="Times,serif" font-size="14.00">b</text>
</g><g id="edge39" class="edge" data-name="bb-&gt;ba" data-comment="pcb-&gt;pba">

<path fill="none" stroke="black" d="M460.38,-371.75C465.19,-383.82 470.75,-399.01 474.39,-413 487.44,-463.06 457.47,-489.83 492.39,-528 532.06,-571.38 690.27,-592 749.06,-592 749.06,-592 749.06,-592 964.36,-592 990.36,-592 1012.7,-571.21 1027.21,-553.15"/>
<polygon fill="black" stroke="black" points="1029.92,-555.38 1033.15,-545.29 1024.33,-551.16 1029.92,-555.38"/>
<text text-anchor="middle" x="750.06" y="-596.2" font-family="Times,serif" font-size="14.00">a</text>
</g>
<!-- pcc&#45;&gt;pca -->
<g id="edge38" class="edge" data-name="ba-&gt;ac" data-comment="pcc-&gt;pca">

<path fill="none" stroke="black" d="M1026.79,-519C984.86,-500.46 880.57,-454.33 827.81,-430.99"/>
<polygon fill="black" stroke="black" points="829.31,-427.83 818.75,-426.99 826.48,-434.24 829.31,-427.83"/>
<text text-anchor="middle" x="921.71" y="-478.2" font-family="Times,serif" font-size="14.00">c</text>
</g><g id="edge37" class="edge" data-name="ba-&gt;ab" data-comment="pcc-&gt;pca">

<path fill="none" stroke="black" d="M1044.09,-547.44C1041.19,-591.4 1027.64,-691 964.36,-691 707.95,-691 707.95,-691 707.95,-691 654.13,-691 641.61,-676 587.8,-676 448.7,-676 448.7,-676 448.7,-676 395.79,-676 372.99,-606.47 363.85,-562.41"/>
<polygon fill="black" stroke="black" points="367.32,-561.92 362,-552.76 360.44,-563.24 367.32,-561.92"/>
<text text-anchor="middle" x="708.95" y="-695.2" font-family="Times,serif" font-size="14.00">b</text>
</g><g id="edge36" class="edge" data-name="ba-&gt;aa" data-comment="pcc-&gt;pca">

<path fill="none" stroke="black" d="M1025.35,-527C1009.04,-527 985.18,-527 964.36,-527 794.16,-527 794.16,-527 794.16,-527 775.56,-527 755.09,-522.96 738.99,-518.83"/>
<polygon fill="black" stroke="black" points="740.16,-515.52 729.59,-516.25 738.31,-522.27 740.16,-515.52"/>
<text text-anchor="middle" x="880.6" y="-531.2" font-family="Times,serif" font-size="14.00">a</text>
</g><g id="edge41" class="edge" data-name="bb-&gt;bc" data-comment="pcc-&gt;pca">

<path fill="none" stroke="black" d="M469.86,-334.06C478.92,-326.9 489.81,-318.13 499.39,-310 504.46,-305.7 509.79,-301.02 514.88,-296.48"/>
<polygon fill="black" stroke="black" points="516.9,-299.37 521.99,-290.08 512.22,-294.17 516.9,-299.37"/>
<text text-anchor="middle" x="495.89" y="-320.2" font-family="Times,serif" font-size="14.00">c</text>
</g><g id="edge46" class="edge" data-name="ca-&gt;ab" data-comment="pcc-&gt;pca">

<path fill="none" stroke="black" d="M620.78,-382.7C612.49,-406.55 594.88,-447.39 565.69,-470 514.59,-509.59 437.76,-521.7 393.37,-525.39"/>
<polygon fill="black" stroke="black" points="393.26,-521.89 383.53,-526.1 393.76,-528.87 393.26,-521.89"/>
<text text-anchor="middle" x="495.89" y="-511.2" font-family="Times,serif" font-size="14.00">b</text>
</g><g id="edge45" class="edge" data-name="ca-&gt;aa" data-comment="pcc-&gt;pca">

<path fill="none" stroke="black" d="M637.94,-381.32C651.61,-406.46 677.09,-453.28 693.24,-482.97"/>
<polygon fill="black" stroke="black" points="689.96,-484.26 697.81,-491.37 696.11,-480.91 689.96,-484.26"/>
<text text-anchor="middle" x="668.23" y="-446.2" font-family="Times,serif" font-size="14.00">a</text>
</g>
<!-- pcc&#45;&gt;pcb -->
<g id="edge47" class="edge" data-name="ca-&gt;ac" data-comment="pcc-&gt;pcb">

<path fill="none" stroke="black" d="M645.02,-373.93C656.97,-380.73 673.69,-389.48 689.34,-395 712.31,-403.1 739.23,-408.68 760.03,-412.18"/>
<polygon fill="black" stroke="black" points="759.28,-415.61 769.7,-413.73 760.38,-408.7 759.28,-415.61"/>
<text text-anchor="middle" x="708.95" y="-410.2" font-family="Times,serif" font-size="14.00">c</text>
</g>
<!-- pcc&#45;&gt;pcc -->
<g id="edge50" class="edge" data-name="cb-&gt;bc" data-comment="pcc-&gt;pcc">

<path fill="none" stroke="black" d="M942.67,-228.74C904.67,-230.29 818.6,-234.41 746.56,-242.2 686.59,-248.69 617.25,-259.97 576.81,-266.93"/>
<polygon fill="black" stroke="black" points="576.46,-263.43 567.2,-268.59 577.65,-270.33 576.46,-263.43"/>
<text text-anchor="middle" x="750.06" y="-247.2" font-family="Times,serif" font-size="14.00">c</text>
</g><g id="edge49" class="edge" data-name="cb-&gt;bb" data-comment="pcc-&gt;pcc">

<path fill="none" stroke="black" d="M962.09,-207.24C960.28,-160.88 948.85,-53 881.6,-53 540.54,-53 540.54,-53 540.54,-53 435.03,-53 506.46,-180.48 474.39,-281 470.86,-292.05 466.78,-304.02 463.01,-314.79"/>
<polygon fill="black" stroke="black" points="459.76,-313.48 459.73,-324.07 466.36,-315.81 459.76,-313.48"/>
<text text-anchor="middle" x="708.95" y="-57.2" font-family="Times,serif" font-size="14.00">b</text>
</g><g id="edge48" class="edge" data-name="cb-&gt;ba" data-comment="pcc-&gt;pcc">

<path fill="none" stroke="black" d="M969.64,-247.62C983.35,-298.51 1020.12,-435.09 1036.64,-496.43"/>
<polygon fill="black" stroke="black" points="1033.2,-497.1 1039.18,-505.85 1039.96,-495.28 1033.2,-497.1"/>
<text text-anchor="middle" x="1004.61" y="-391.2" font-family="Times,serif" font-size="14.00">a</text>
</g>
<g id="edge53" class="edge" data-name="cc-&gt;cc" data-comment="pcc-&gt;pcc">

<path fill="none" stroke="black" d="M873.28,-294.58C872.03,-304.54 874.47,-313.61 880.6,-313.61 884.23,-313.61 886.57,-310.41 887.61,-305.73"/>
<polygon fill="black" stroke="black" points="891.1,-306.18 887.87,-296.09 884.1,-305.99 891.1,-306.18"/>
<text text-anchor="middle" x="880.6" y="-317.81" font-family="Times,serif" font-size="14.00">c</text>
</g><g id="edge52" class="edge" data-name="cc-&gt;cb" data-comment="pcc-&gt;pcc">

<path fill="none" stroke="black" d="M897.94,-266.29C908.74,-259.87 923.15,-251.3 935.61,-243.9"/>
<polygon fill="black" stroke="black" points="937.37,-246.92 944.18,-238.8 933.8,-240.9 937.37,-246.92"/>
<text text-anchor="middle" x="921.71" y="-258.2" font-family="Times,serif" font-size="14.00">b</text>
</g><g id="edge51" class="edge" data-name="cc-&gt;ca" data-comment="pcc-&gt;pcc">

<path fill="none" stroke="black" d="M861.7,-282.27C818.8,-297.31 709.77,-335.52 657.42,-353.87"/>
<polygon fill="black" stroke="black" points="656.28,-350.56 648,-357.17 658.6,-357.17 656.28,-350.56"/>
<text text-anchor="middle" x="750.06" y="-327.2" font-family="Times,serif" font-size="14.00">a</text>
</g></g>
</svg>