<?xml version="1.0" standalone="no"?>
<svg xmlns="http://www.w3.org/2000/svg" xmlns:xlink="http://www.w3.org/1999/xlink" width="552pt" height="555pt" viewBox="0.00 0.00 551.5 554.63">
<g id="graph0" class="graph" transform="translate(69.30021862500158,500.89144369266825) scale(0.698339266233699)" data-name="AFA">

<polygon fill="white" stroke="none" points="-4,4 -4,-550.63 547.5,-550.63 547.5,4 -4,4"/>
<!-- q7 -->
<g id="node1" class="node" pointer-events="visible" data-name="q7">

<ellipse fill="none" stroke="black" cx="360.81" cy="-359.83" rx="20.86" ry="20.86"/>
<ellipse fill="none" stroke="black" cx="360.81" cy="-359.83" rx="24.89" ry="24.89"/>
<text text-anchor="middle" x="360.81" y="-355.63" font-family="Times,serif" font-size="14.00">q7</text>
</g>
<!-- ab -->
<g id="node2" class="node" pointer-events="visible" data-name="qf" data-comment="ab">

<ellipse fill="none" stroke="black" cx="360.81" cy="-97.83" rx="19.15" ry="19.15"/>
<ellipse fill="none" stroke="black" cx="360.81" cy="-97.83" rx="23.16" ry="23.16"/>
<text text-anchor="middle" x="360.81" y="-93.63" font-family="Times,serif" font-size="14.00">qf</text>
</g>
<!-- bb -->

<!-- ab&#45;&gt;bb -->
<g id="edge31" class="edge" data-name="qf-&gt;a" data-comment="ab-&gt;bb">

<path fill="none" stroke="black" d="M338.82,-89.65C326.53,-86.11 310.91,-83.84 297.9,-89.03 290.58,-91.95 283.87,-97.05 278.2,-102.5"/>
<polygon fill="black" stroke="black" points="276.01,-99.72 271.73,-109.41 281.12,-104.5 276.01,-99.72"/>
<text text-anchor="middle" x="308.01" y="-94.03" font-family="Times,serif" font-size="14.00">a</text>
</g>
<!-- bc -->

<!-- ab&#45;&gt;bc -->
<g id="edge32" class="edge" data-name="qf-&gt;b" data-comment="ab-&gt;bc">

<path fill="none" stroke="black" d="M383.12,-105.43C396.07,-109.66 413.02,-114.52 428.5,-116.83 455.32,-120.83 462.49,-120.13 489.5,-117.83 491.71,-117.64 494,-117.39 496.28,-117.09"/>
<polygon fill="black" stroke="black" points="496.65,-120.58 505.99,-115.58 495.57,-113.66 496.65,-120.58"/>
<text text-anchor="middle" x="446.5" y="-124.03" font-family="Times,serif" font-size="14.00">b</text>
</g>
<!-- ba -->

<!-- ab&#45;&gt;ba -->
<g id="edge33" class="edge" data-name="qf-&gt;c" data-comment="ab-&gt;ba">

<path fill="none" stroke="black" d="M376.77,-114.64C390.71,-130.29 411.54,-153.68 426.61,-170.61"/>
<polygon fill="black" stroke="black" points="423.63,-172.53 432.9,-177.67 428.86,-167.87 423.63,-172.53"/>
<text text-anchor="middle" x="407" y="-155.03" font-family="Times,serif" font-size="14.00">c</text>
</g>
<!-- ac -->

<!-- ca -->

<!-- ac&#45;&gt;ca -->

<!-- cb -->

<!-- ac&#45;&gt;cb -->

<!-- cc -->

<!-- ac&#45;&gt;cc -->
<g id="edge15" class="edge" data-name="0-&gt;0" data-comment="ac-&gt;cc">

<path fill="none" stroke="black" d="M162.27,-273.98C161.83,-283.37 162.78,-291.83 165.11,-291.83 166.38,-291.83 167.24,-289.3 167.69,-285.47"/>
<polygon fill="black" stroke="black" points="171.19,-285.57 167.91,-275.5 164.19,-285.42 171.19,-285.57"/>
<text text-anchor="middle" x="165.11" y="-296.03" font-family="Times,serif" font-size="14.00">a</text>
</g>
<!-- bb&#45;&gt;bb -->

<!-- bb&#45;&gt;bc -->

<!-- bb&#45;&gt;ba -->

<!-- bc&#45;&gt;ca -->

<!-- bc&#45;&gt;cb -->

<!-- bc&#45;&gt;cc -->
<g id="edge16" class="edge" data-name="0-&gt;0" data-comment="bc-&gt;cc">

<path fill="none" stroke="black" d="M160.43,-273.53C157.85,-290.83 159.41,-309.83 165.11,-309.83 169.56,-309.83 171.48,-298.23 170.88,-284.91" style=""/>
<polygon fill="black" stroke="black" points="174.37,-284.65 169.93,-275.04 167.41,-285.33 174.37,-284.65"/>
<text text-anchor="middle" x="165.11" y="-314.03" font-family="Times,serif" font-size="14.00" style="">b</text>
</g>
<!-- start -->
<g id="node3" class="node" pointer-events="visible" data-name="start">

<ellipse fill="black" stroke="black" cx="1.8" cy="-292.83" rx="1.8" ry="1.8"/>
</g><g id="edge17" class="edge" data-name="0-&gt;0" data-comment="start">

<path fill="none" stroke="black" d="M159.31,-273.18C153.85,-297.65 155.78,-327.83 165.11,-327.83 173.05,-327.83 175.63,-305.94 172.85,-284.34" style=""/>
<polygon fill="black" stroke="black" points="176.33,-283.93 171.16,-274.68 169.43,-285.13 176.33,-283.93"/>
<text text-anchor="middle" x="165.11" y="-332.03" font-family="Times,serif" font-size="14.00" style="">c</text>
</g>
<!-- u -->
<g id="node4" class="node" pointer-events="visible" data-name="u">

<ellipse fill="none" stroke="black" cx="61.29" cy="-292.83" rx="18" ry="18"/>
<text text-anchor="middle" x="61.29" y="-288.63" font-family="Times,serif" font-size="14.00">u</text>
</g>
<!-- start&#45;&gt;u -->
<g id="edge1" class="edge" data-name="start-&gt;u">

<path fill="none" stroke="black" d="M3.8,-292.83C7.3,-292.83 19.48,-292.83 31.64,-292.83"/>
<polygon fill="black" stroke="black" points="31.5,-296.33 41.5,-292.83 31.5,-289.33 31.5,-296.33"/>
</g>
<!-- q0 -->
<g id="node5" class="node" pointer-events="visible" data-name="q0">

<ellipse fill="none" stroke="black" cx="165.11" cy="-476.83" rx="20.89" ry="20.89"/>
<text text-anchor="middle" x="165.11" y="-472.63" font-family="Times,serif" font-size="14.00">q0</text>
</g>
<!-- u&#45;&gt;q0 -->
<g id="edge2" class="edge" data-name="u-&gt;q0">

<path fill="none" stroke="black" d="M70.12,-308.99C84.12,-337.54 114.73,-398.52 144.41,-447.83 144.94,-448.7 145.47,-449.57 146.02,-450.46"/>
<polygon fill="black" stroke="black" points="142.92,-452.11 151.3,-458.59 148.79,-448.3 142.92,-452.11"/>
<text text-anchor="middle" x="113.2" y="-418.03" font-family="Times,serif" font-size="14.00">ε</text>
</g>
<!-- 0 -->
<g id="node6" class="node" pointer-events="visible" data-name="0">

<ellipse fill="none" stroke="black" cx="165.11" cy="-255.83" rx="18" ry="18"/>
<text text-anchor="middle" x="165.11" y="-251.63" font-family="Times,serif" font-size="14.00">0</text>
</g>
<!-- u&#45;&gt;0 -->
<g id="edge3" class="edge" data-name="u-&gt;0">

<path fill="none" stroke="black" d="M78.65,-286.89C94.39,-281.17 118.46,-272.42 137.05,-265.67"/>
<polygon fill="black" stroke="black" points="138.16,-268.98 146.37,-262.28 135.77,-262.4 138.16,-268.98"/>
<text text-anchor="middle" x="113.2" y="-283.03" font-family="Times,serif" font-size="14.00">ε</text>
</g>
<!-- q1 -->
<g id="node7" class="node" pointer-events="visible" data-name="q1">

<ellipse fill="none" stroke="black" cx="259.21" cy="-432.83" rx="20.89" ry="20.89"/>
<text text-anchor="middle" x="259.21" y="-428.63" font-family="Times,serif" font-size="14.00">q1</text>
</g>
<!-- q0&#45;&gt;q1 -->
<g id="edge4" class="edge" data-name="q0-&gt;q1">

<path fill="none" stroke="black" d="M183.48,-466.12C189.78,-462.41 197.01,-458.36 203.8,-455.03 211.67,-451.17 220.39,-447.4 228.5,-444.1"/>
<polygon fill="black" stroke="black" points="229.63,-447.41 237.64,-440.47 227.05,-440.91 229.63,-447.41"/>
<text text-anchor="middle" x="212.16" y="-459.03" font-family="Times,serif" font-size="14.00">a</text>
</g>
<!-- q3 -->
<g id="node8" class="node" pointer-events="visible" data-name="q3">

<ellipse fill="none" stroke="black" cx="259.21" cy="-491.83" rx="20.89" ry="20.89"/>
<text text-anchor="middle" x="259.21" y="-487.63" font-family="Times,serif" font-size="14.00">q3</text>
</g>
<!-- q0&#45;&gt;q3 -->
<g id="edge5" class="edge" data-name="q0-&gt;q3">

<path fill="none" stroke="black" d="M186.43,-475.71C196.72,-475.53 209.37,-475.93 220.52,-478.03 223.33,-478.56 226.22,-479.28 229.07,-480.11"/>
<polygon fill="black" stroke="black" points="227.73,-483.35 238.33,-483.22 229.97,-476.72 227.73,-483.35"/>
<text text-anchor="middle" x="212.16" y="-482.03" font-family="Times,serif" font-size="14.00">b</text>
</g>
<!-- a -->
<g id="node13" class="node" pointer-events="visible" data-name="a">

<ellipse fill="none" stroke="black" cx="259.21" cy="-124.83" rx="18" ry="18"/>
<text text-anchor="middle" x="259.21" y="-120.63" font-family="Times,serif" font-size="14.00">a</text>
</g>
<!-- 0&#45;&gt;a -->
<g id="edge18" class="edge" data-name="0-&gt;a">

<path fill="none" stroke="black" d="M176.32,-241.31C192.08,-218.89 222.52,-175.59 241.52,-148.57"/>
<polygon fill="black" stroke="black" points="244.2,-150.85 247.08,-140.65 238.47,-146.82 244.2,-150.85"/>
<text text-anchor="middle" x="212.16" y="-207.03" font-family="Times,serif" font-size="14.00">a</text>
</g>
<!-- b -->
<g id="node14" class="node" pointer-events="visible" data-name="b">

<ellipse fill="none" stroke="black" cx="525.5" cy="-111.83" rx="18" ry="18"/>
<text text-anchor="middle" x="525.5" y="-107.63" font-family="Times,serif" font-size="14.00">b</text>
</g>
<g id="edge19" class="edge" data-name="0-&gt;b" data-comment="b">

<path fill="none" stroke="black" d="M179.46,-267.19C196.55,-280.52 227.6,-300.83 258.21,-300.83 258.21,-300.83 258.21,-300.83 447.5,-300.83 515.38,-300.83 524.79,-194.99 525.22,-141.71"/>
<polygon fill="black" stroke="black" points="528.72,-141.8 525.19,-131.81 521.72,-141.82 528.72,-141.8"/>
<text text-anchor="middle" x="360.81" y="-305.03" font-family="Times,serif" font-size="14.00">b</text>
</g><g id="node15" class="node" pointer-events="visible" data-name="c" data-comment="b">

<ellipse fill="none" stroke="black" cx="446.5" cy="-191.83" rx="18" ry="18"/>
<text text-anchor="middle" x="446.5" y="-187.63" font-family="Times,serif" font-size="14.00">c</text>
</g><g id="edge20" class="edge" data-name="0-&gt;c" data-comment="b">

<path fill="none" stroke="black" d="M183.29,-253.46C220.43,-248.21 310.85,-234.7 385.5,-217.83 396.76,-215.29 399.81,-215.17 410.5,-210.83 413.79,-209.5 417.17,-207.93 420.47,-206.29"/>
<polygon fill="black" stroke="black" points="422.02,-209.43 429.2,-201.63 418.73,-203.25 422.02,-209.43"/>
<text text-anchor="middle" x="308.01" y="-240.03" font-family="Times,serif" font-size="14.00">c</text>
</g><g id="edge7" class="edge" data-name="q1-&gt;q0" data-comment="b">

<path fill="none" stroke="black" d="M239.42,-425.4C228.5,-422.28 214.77,-420.51 203.8,-426.03 200.84,-427.52 192.29,-438.9 184.08,-450.52"/>
<polygon fill="black" stroke="black" points="181.39,-448.25 178.55,-458.45 187.14,-452.25 181.39,-448.25"/>
<text text-anchor="middle" x="212.16" y="-430.03" font-family="Times,serif" font-size="14.00">c</text>
</g><g id="node9" class="node" pointer-events="visible" data-name="q2" data-comment="b">

<ellipse fill="none" stroke="black" cx="360.81" cy="-511.83" rx="20.89" ry="20.89"/>
<text text-anchor="middle" x="360.81" y="-507.63" font-family="Times,serif" font-size="14.00">q2</text>
</g><g id="edge6" class="edge" data-name="q1-&gt;q2" data-comment="b">

<path fill="none" stroke="black" d="M276.21,-445.52C292.04,-458.08 316.49,-477.47 334.87,-492.05"/>
<polygon fill="black" stroke="black" points="332.65,-494.76 342.66,-498.23 337,-489.27 332.65,-494.76"/>
<text text-anchor="middle" x="308.01" y="-481.03" font-family="Times,serif" font-size="14.00">b</text>
</g><g id="edge10" class="edge" data-name="q3-&gt;q0" data-comment="b">

<path fill="none" stroke="black" d="M238.35,-495.53C227.94,-496.82 215.06,-497.38 203.8,-494.83 200.55,-494.1 197.26,-493.04 194.03,-491.81"/>
<polygon fill="black" stroke="black" points="195.48,-488.63 184.92,-487.76 192.63,-495.02 195.48,-488.63"/>
<text text-anchor="middle" x="212.16" y="-500.03" font-family="Times,serif" font-size="14.00">c</text>
</g><g id="node10" class="node" pointer-events="visible" data-name="q4" data-comment="b">

<ellipse fill="none" stroke="black" cx="61.29" cy="-476.83" rx="20.89" ry="20.89"/>
<text text-anchor="middle" x="61.29" y="-472.63" font-family="Times,serif" font-size="14.00">q4</text>
</g><g id="edge9" class="edge" data-name="q3-&gt;q4" data-comment="b">

<path fill="none" stroke="black" d="M242.76,-505.05C236.32,-509.73 228.48,-514.43 220.52,-516.83 213.4,-518.98 211.2,-517.45 203.8,-516.83 157.06,-512.92 143.98,-514.1 99.99,-497.83 96.47,-496.53 92.89,-494.94 89.41,-493.22"/>
<polygon fill="black" stroke="black" points="91.2,-490.2 80.73,-488.55 87.88,-496.37 91.2,-490.2"/>
<text text-anchor="middle" x="165.11" y="-519.03" font-family="Times,serif" font-size="14.00">a</text>
</g><g id="edge8" class="edge" data-name="q2-&gt;q0" data-comment="b">

<path fill="none" stroke="black" d="M340.73,-518.1C309.95,-527.04 248.29,-539.94 203.8,-516.83 196.86,-513.23 190.5,-507.83 185.06,-502.16"/>
<polygon fill="black" stroke="black" points="188,-500.2 178.78,-494.97 182.72,-504.8 188,-500.2"/>
<text text-anchor="middle" x="259.21" y="-534.03" font-family="Times,serif" font-size="14.00">c</text>
</g><g id="edge11" class="edge" data-name="q4-&gt;q0" data-comment="b">

<path fill="none" stroke="black" d="M82.41,-476.83C96.77,-476.83 116.37,-476.83 132.78,-476.83"/>
<polygon fill="black" stroke="black" points="132.52,-480.33 142.52,-476.83 132.52,-473.33 132.52,-480.33"/>
<text text-anchor="middle" x="113.2" y="-481.03" font-family="Times,serif" font-size="14.00">c</text>
</g><g id="node11" class="node" pointer-events="visible" data-name="q5" data-comment="b">

<ellipse fill="none" stroke="black" cx="165.11" cy="-417.83" rx="20.89" ry="20.89"/>
<text text-anchor="middle" x="165.11" y="-413.63" font-family="Times,serif" font-size="14.00">q5</text>
</g><g id="edge12" class="edge" data-name="q4-&gt;q5" data-comment="b">

<path fill="none" stroke="black" d="M80.03,-466.55C95.65,-457.5 118.65,-444.17 136.65,-433.74"/>
<polygon fill="black" stroke="black" points="138.37,-436.79 145.27,-428.75 134.86,-430.74 138.37,-436.79"/>
<text text-anchor="middle" x="113.2" y="-458.03" font-family="Times,serif" font-size="14.00">a,b,c</text>
</g><g id="node12" class="node" pointer-events="visible" data-name="q6" data-comment="b">

<ellipse fill="none" stroke="black" cx="259.21" cy="-357.83" rx="20.89" ry="20.89"/>
<text text-anchor="middle" x="259.21" y="-353.63" font-family="Times,serif" font-size="14.00">q6</text>
</g><g id="edge13" class="edge" data-name="q5-&gt;q6" data-comment="b">

<path fill="none" stroke="black" d="M183,-406.83C196.68,-397.92 216.18,-385.21 231.9,-374.97"/>
<polygon fill="black" stroke="black" points="233.37,-378.19 239.84,-369.8 229.55,-372.32 233.37,-378.19"/>
<text text-anchor="middle" x="212.16" y="-397.03" font-family="Times,serif" font-size="14.00">a,b</text>
</g><g id="edge14" class="edge" data-name="q6-&gt;q7" data-comment="b">

<path fill="none" stroke="black" d="M280.36,-358.24C292.92,-358.49 309.44,-358.82 324.15,-359.12"/>
<polygon fill="black" stroke="black" points="323.88,-362.61 333.95,-359.31 324.02,-355.61 323.88,-362.61"/>
<text text-anchor="middle" x="308.01" y="-363.03" font-family="Times,serif" font-size="14.00">b,c</text>
</g><!-- q -->
<!-- b&#45;&gt;qf -->
<g id="edge22" class="edge" data-name="b-&gt;qf">

<path fill="none" stroke="black" d="M507.55,-107.69C495.6,-104.96 479.17,-101.62 464.5,-100.03 441.64,-97.56 415.75,-97.02 395.68,-97.09"/>
<polygon fill="black" stroke="black" points="395.8,-93.59 385.83,-97.19 395.87,-100.59 395.8,-93.59"/>
<text text-anchor="middle" x="446.5" y="-105.03" font-family="Times,serif" font-size="14.00">b, c</text>
</g><g id="edge21" class="edge" data-name="a-&gt;qf" data-comment="b-&gt;qf">

<path fill="none" stroke="black" d="M277.1,-120.25C290.72,-116.56 310.28,-111.26 326.96,-106.74"/>
<polygon fill="black" stroke="black" points="327.75,-110.15 336.48,-104.16 325.91,-103.39 327.75,-110.15"/>
<text text-anchor="middle" x="308.01" y="-119.03" font-family="Times,serif" font-size="14.00">b, c</text>
</g>
<g id="edge28" class="edge" data-name="a-&gt;a" data-comment="b-&gt;qf">

<path fill="none" stroke="black" d="M251.01,-141.12C249.03,-151.22 251.77,-160.83 259.21,-160.83 263.63,-160.83 266.39,-157.44 267.49,-152.58"/>
<polygon fill="black" stroke="black" points="270.99,-152.61 267.42,-142.64 263.99,-152.66 270.99,-152.61"/>
<text text-anchor="middle" x="259.21" y="-165.03" font-family="Times,serif" font-size="14.00">a</text>
</g>
<!-- c&#45;&gt;b -->
<!-- c&#45;&gt;b -->
<g id="edge23" class="edge" data-name="c-&gt;b">

<path fill="none" stroke="black" d="M460.74,-180.26C469.2,-172.69 480.27,-162.45 489.5,-152.83 495.16,-146.93 501.03,-140.29 506.31,-134.09"/>
<polygon fill="black" stroke="black" points="508.82,-136.54 512.56,-126.63 503.46,-132.05 508.82,-136.54"/>
<text text-anchor="middle" x="486" y="-164.03" font-family="Times,serif" font-size="14.00">b</text>
</g><g id="edge24" class="edge" data-name="c-&gt;a" data-comment="c-&gt;b">

<path fill="none" stroke="black" d="M429.1,-185.9C397.19,-174.36 326.5,-148.8 287.45,-134.68"/>
<polygon fill="black" stroke="black" points="288.67,-131.4 278.08,-131.29 286.29,-137.98 288.67,-131.4"/>
<text text-anchor="middle" x="360.81" y="-174.03" font-family="Times,serif" font-size="14.00">a</text>
</g><g id="edge26" class="edge" data-name="b-&gt;a" data-comment="c-&gt;b">

<path fill="none" stroke="black" d="M521.8,-93.79C517.95,-74.37 509.07,-43.85 489.5,-25.83 473.42,-11.02 439.12,3.09 403.5,-1.03 355.61,-6.58 334.18,5.92 297.9,-25.83 277.72,-43.49 268.3,-73.14 263.93,-95.4"/>
<polygon fill="black" stroke="black" points="260.51,-94.64 262.29,-105.09 267.41,-95.81 260.51,-94.64"/>
<text text-anchor="middle" x="407" y="-6.03" font-family="Times,serif" font-size="14.00">a</text>
</g><g id="edge29" class="edge" data-name="a-&gt;b" data-comment="c-&gt;b">

<path fill="none" stroke="black" d="M270.5,-110.57C277.46,-101.7 287.29,-90.56 297.9,-82.83 312.93,-71.9 317.93,-69.69 336.12,-65.83 394.91,-53.34 463.32,-80.65 499.34,-98.31"/>
<polygon fill="black" stroke="black" points="497.58,-101.35 508.08,-102.75 500.75,-95.1 497.58,-101.35"/>
<text text-anchor="middle" x="407" y="-72.03" font-family="Times,serif" font-size="14.00">b</text>
</g>
<g id="edge27" class="edge" data-name="b-&gt;b" data-comment="c-&gt;b">

<path fill="none" stroke="black" d="M518.5,-128.87C517.08,-138.69 519.41,-147.83 525.5,-147.83 529.03,-147.83 531.29,-144.78 532.3,-140.3"/>
<polygon fill="black" stroke="black" points="535.8,-140.44 532.48,-130.38 528.8,-140.32 535.8,-140.44"/>
<text text-anchor="middle" x="525.5" y="-152.03" font-family="Times,serif" font-size="14.00">b</text>
</g><g id="edge30" class="edge" data-name="a-&gt;c" data-comment="c-&gt;b">

<path fill="none" stroke="black" d="M271.44,-138.35C284.99,-153.54 309.3,-177.42 336.12,-187.83 362.24,-197.98 394.57,-197.76 417.29,-195.75"/>
<polygon fill="black" stroke="black" points="417.44,-199.26 427.01,-194.71 416.69,-192.3 417.44,-199.26"/>
<text text-anchor="middle" x="360.81" y="-201.03" font-family="Times,serif" font-size="14.00">c</text>
</g>
<!-- c&#45;&gt;c -->
<!-- c&#45;&gt;c -->
<!-- c&#45;&gt;c -->
<!-- c&#45;&gt;c -->
<!-- c&#45;&gt;c -->
<!-- c&#45;&gt;c -->
<!-- c&#45;&gt;c -->
<!-- c&#45;&gt;c -->
<!-- c&#45;&gt;c -->
<g id="edge25" class="edge" data-name="c-&gt;c">

<path fill="none" stroke="black" d="M439.5,-208.87C438.08,-218.69 440.41,-227.83 446.5,-227.83 450.03,-227.83 452.29,-224.78 453.3,-220.3"/>
<polygon fill="black" stroke="black" points="456.8,-220.44 453.48,-210.38 449.8,-220.32 456.8,-220.44"/>
<text text-anchor="middle" x="446.5" y="-232.03" font-family="Times,serif" font-size="14.00">c</text>
</g>








</g>
</svg>